<svg xmlns="http://www.w3.org/2000/svg" viewBox="0 0 102.99 102.12"><defs><style>.cls-1{fill:#11294c;}.cls-2{fill:#ff8d1b;}</style></defs><g id="Layer_2" data-name="Layer 2"><g id="Layer_1-2" data-name="Layer 1"><path class="cls-1" d="M0,101.92V85.77H2L8.38,97.59H7.67L14,85.77h2v16.15H13.82V89.13h.51L8.73,99.44H7.28L1.61,89.11h.56v12.81Z"/><path class="cls-1" d="M24.69,102.12a6.68,6.68,0,0,1-3.17-.7,5,5,0,0,1-2.05-2,6.23,6.23,0,0,1-.72-3.08,6.33,6.33,0,0,1,.71-3,5.27,5.27,0,0,1,2-2,5.55,5.55,0,0,1,2.83-.73,5.12,5.12,0,0,1,2.69.68,4.47,4.47,0,0,1,1.71,1.91,6.69,6.69,0,0,1,.6,2.95v.78H20.59V95.43h7.09l-.39.32a4.08,4.08,0,0,0-.76-2.65,2.63,2.63,0,0,0-2.19-.94,3.25,3.25,0,0,0-1.83.5,3.17,3.17,0,0,0-1.14,1.4A5.15,5.15,0,0,0,21,96.14v.14a5.1,5.1,0,0,0,.43,2.23,2.93,2.93,0,0,0,1.25,1.37,4.28,4.28,0,0,0,2.05.45,6.14,6.14,0,0,0,1.9-.3,5.75,5.75,0,0,0,1.77-1l.69,1.61a5.48,5.48,0,0,1-2,1.07A7.8,7.8,0,0,1,24.69,102.12Z"/><path class="cls-1" d="M35.55,102.12A9.19,9.19,0,0,1,33.8,102a8,8,0,0,1-1.57-.46,5.62,5.62,0,0,1-1.27-.73l.67-1.56a8.08,8.08,0,0,0,1.22.68,6.23,6.23,0,0,0,1.35.42,7.32,7.32,0,0,0,1.37.14,3.18,3.18,0,0,0,1.84-.44A1.34,1.34,0,0,0,38,98.85a1.11,1.11,0,0,0-.42-.93,3.14,3.14,0,0,0-1.24-.52L34.19,97A4.15,4.15,0,0,1,32,95.91,2.62,2.62,0,0,1,31.29,94a3,3,0,0,1,.57-1.83A3.66,3.66,0,0,1,33.48,91a6.11,6.11,0,0,1,2.39-.43,6.94,6.94,0,0,1,1.52.16,6.87,6.87,0,0,1,1.39.46,3.75,3.75,0,0,1,1.12.76l-.67,1.55a4.13,4.13,0,0,0-1-.66,5.37,5.37,0,0,0-1.16-.42,4.93,4.93,0,0,0-1.2-.15,3.17,3.17,0,0,0-1.83.44,1.42,1.42,0,0,0-.61,1.21,1.23,1.23,0,0,0,.37.93,2.21,2.21,0,0,0,1.15.53l2.19.44a4.69,4.69,0,0,1,2.27,1,2.52,2.52,0,0,1,.77,1.93,3,3,0,0,1-.58,1.83A3.5,3.5,0,0,1,38,101.72,6.73,6.73,0,0,1,35.55,102.12Z"/><path class="cls-1" d="M46.38,102.12a9.19,9.19,0,0,1-1.75-.16,7.71,7.71,0,0,1-1.56-.46,5.41,5.41,0,0,1-1.27-.73l.67-1.56a7.62,7.62,0,0,0,1.22.68,6.32,6.32,0,0,0,1.34.42,7.34,7.34,0,0,0,1.38.14,3.22,3.22,0,0,0,1.84-.44,1.35,1.35,0,0,0,.62-1.16,1.11,1.11,0,0,0-.42-.93,3.14,3.14,0,0,0-1.24-.52L45,97a4.07,4.07,0,0,1-2.16-1.06A2.63,2.63,0,0,1,42.12,94a3,3,0,0,1,.58-1.83A3.62,3.62,0,0,1,44.31,91a6.14,6.14,0,0,1,2.39-.43,7,7,0,0,1,2.92.62,3.75,3.75,0,0,1,1.12.76l-.67,1.55a4.34,4.34,0,0,0-1-.66,5.65,5.65,0,0,0-1.17-.42,4.93,4.93,0,0,0-1.2-.15,3.17,3.17,0,0,0-1.83.44,1.44,1.44,0,0,0-.61,1.21,1.27,1.27,0,0,0,.37.93,2.24,2.24,0,0,0,1.15.53l2.19.44a4.65,4.65,0,0,1,2.27,1A2.52,2.52,0,0,1,51,98.71a3,3,0,0,1-.57,1.83,3.58,3.58,0,0,1-1.63,1.18A6.73,6.73,0,0,1,46.38,102.12Z"/><path class="cls-1" d="M53.56,101.92V85.77h2l6.38,11.82h-.71l6.33-11.82h2v16.15H67.38V89.13h.5L62.29,99.44H60.84L55.17,89.11h.55v12.81Z"/><path class="cls-1" d="M76.33,102.12a4.64,4.64,0,0,1-2.11-.46,3.71,3.71,0,0,1-1.47-1.23,3.1,3.1,0,0,1-.53-1.77,2.91,2.91,0,0,1,.64-2,3.77,3.77,0,0,1,2.09-1,20.51,20.51,0,0,1,4-.31H80v1.42H78.93a20.22,20.22,0,0,0-2.1.1,5.54,5.54,0,0,0-1.36.28,1.38,1.38,0,0,0-.72.54,1.47,1.47,0,0,0-.22.83,1.77,1.77,0,0,0,.6,1.4,2.39,2.39,0,0,0,1.66.54,2.75,2.75,0,0,0,1.49-.4,3,3,0,0,0,1-1.09,3.21,3.21,0,0,0,.38-1.58V94.77a2.64,2.64,0,0,0-.56-1.88,2.43,2.43,0,0,0-1.82-.57,6.83,6.83,0,0,0-1.93.28,8.9,8.9,0,0,0-2,.91l-.71-1.63a6.61,6.61,0,0,1,1.38-.71,10.71,10.71,0,0,1,1.64-.47,9,9,0,0,1,1.67-.17,5.92,5.92,0,0,1,2.55.48,3.13,3.13,0,0,1,1.49,1.47A5.81,5.81,0,0,1,81.9,95v6.9H79.71v-2.5h.21a3.48,3.48,0,0,1-.68,1.45,3.14,3.14,0,0,1-1.23.93A4.3,4.3,0,0,1,76.33,102.12Z"/><path class="cls-1" d="M89.71,102.12a4.24,4.24,0,0,1-3.15-1.07,4.3,4.3,0,0,1-1-3.12V92.52H83.32V90.74h2.19V87.37h2.33v3.37h3.48v1.78H87.84v5.23a2.76,2.76,0,0,0,.52,1.83,2.09,2.09,0,0,0,1.69.62,2.86,2.86,0,0,0,.7-.09l.71-.19.36,1.74a3.24,3.24,0,0,1-.95.34A6.1,6.1,0,0,1,89.71,102.12Z"/><path class="cls-1" d="M98.43,102.12a6.61,6.61,0,0,1-3.16-.7,4.86,4.86,0,0,1-2-2,6.13,6.13,0,0,1-.73-3.08,6.33,6.33,0,0,1,.71-3,5.27,5.27,0,0,1,2-2A5.58,5.58,0,0,1,98,90.53a5.11,5.11,0,0,1,2.68.68,4.47,4.47,0,0,1,1.71,1.91,6.69,6.69,0,0,1,.6,2.95v.78H94.33V95.43h7.1l-.39.32a4.08,4.08,0,0,0-.77-2.65,2.62,2.62,0,0,0-2.18-.94,3.23,3.23,0,0,0-1.83.5,3.17,3.17,0,0,0-1.14,1.4,5,5,0,0,0-.4,2.08v.14a5.24,5.24,0,0,0,.43,2.23,2.9,2.9,0,0,0,1.26,1.37,4.23,4.23,0,0,0,2,.45,6.23,6.23,0,0,0,1.9-.3,5.59,5.59,0,0,0,1.76-1l.69,1.61a5.48,5.48,0,0,1-2,1.07A7.76,7.76,0,0,1,98.43,102.12Z"/><path class="cls-2" d="M26.46,15.51A7.25,7.25,0,0,0,25,16.67a17.35,17.35,0,0,0-1.56,2.07,8.43,8.43,0,0,0-.74,1.36c-.23.48-.46,1-.68,1.52a14.25,14.25,0,0,0-.54,1.71c-.15.6-.33,1.21-.43,1.86a30.51,30.51,0,0,0-.38,4.26c0,.71-.06,1.42,0,2.13s.05,1.42.16,2.13a31.23,31.23,0,0,0,2.06,8.2A30.5,30.5,0,0,0,33,55a5.34,5.34,0,0,0,.13.65l.1.34a1.81,1.81,0,0,1,0,.25,4.59,4.59,0,0,0,0,1,5.72,5.72,0,0,0,.63,2,7,7,0,0,0,3.36,3.16,33.79,33.79,0,0,0,10.14,2.81,1.9,1.9,0,0,0,1.32-.29,1.25,1.25,0,0,0,.6-1,1.33,1.33,0,0,0-.42-1,2,2,0,0,0-1.15-.55A30.78,30.78,0,0,1,38,59.43,5.26,5.26,0,0,1,38,57.3,29.11,29.11,0,0,0,48,60.36a1.45,1.45,0,0,0,1.13-.3,1.29,1.29,0,0,0,.51-1,1.5,1.5,0,0,0-1.3-1.59,26.11,26.11,0,0,1-8.91-2.8A8.52,8.52,0,0,1,41,53.29a24.62,24.62,0,0,0,7.6,2.27,1.08,1.08,0,0,0,.95-.31,1.48,1.48,0,0,0,.45-1,1.72,1.72,0,0,0-.27-1.06,1,1,0,0,0-.77-.5,21.61,21.61,0,0,1-6.35-1.87,5.35,5.35,0,0,0-3.12-.42,8.38,8.38,0,0,0-1.71.42c-.27.11-.55.23-.81.36l-.2.11a3,3,0,0,1-.31,0l-.59.1A25.51,25.51,0,0,1,28,40a24.94,24.94,0,0,1-1.23-6.77c-.06-.58,0-1.15,0-1.72s.09-1.14.13-1.71a25.15,25.15,0,0,1,.53-3.37c.11-.51.26-1,.36-1.48s.18-.95.33-1.38.25-.86.34-1.28.17-.82.3-1.19A16.91,16.91,0,0,0,29.23,19a6.62,6.62,0,0,0,.2-1.62,3.25,3.25,0,0,0-.21-1.24,1.55,1.55,0,0,0-.58-.79,1.61,1.61,0,0,0-1-.26A3,3,0,0,0,26.46,15.51Z"/><path class="cls-2" d="M79.12,16.44l-5.77,3.11a27,27,0,0,0-4.56-6A24.71,24.71,0,0,0,62.65,9.2c-.58-.25-1.12-.57-1.71-.79l-1.78-.65c-.59-.2-1.21-.32-1.82-.49-.31-.07-.6-.17-.92-.22l-.93-.13a26.26,26.26,0,0,0-3.76-.33c-.63,0-1.26.06-1.89.08A11.77,11.77,0,0,0,48,6.89a27.11,27.11,0,0,0-3.68.8l-1.77.65-.45.16-.42.21-.85.41a23.64,23.64,0,0,0-6.18,4.3,26.2,26.2,0,0,0-4.61,6,27,27,0,0,0-2.56,7.07L21,25.19a32.88,32.88,0,0,1,3.24-9,32.4,32.4,0,0,1,5.82-7.55,30.62,30.62,0,0,1,7.82-5.46L39,2.7l.55-.26.56-.21,2.25-.82A33.86,33.86,0,0,1,47,.37,17.35,17.35,0,0,1,49.36.11c.8,0,1.6-.1,2.39-.11a34.48,34.48,0,0,1,4.76.41L57.7.6c.39.05.77.18,1.16.27.77.21,1.56.38,2.31.63l2.25.82c.75.28,1.45.67,2.18,1a31.45,31.45,0,0,1,7.77,5.52A33.08,33.08,0,0,1,79.12,16.44Z"/><path class="cls-2" d="M67,62.5a12.38,12.38,0,0,1-5.75,1.24,8.85,8.85,0,0,1-4.87-1.51,4.32,4.32,0,0,1-2-3.2,5.86,5.86,0,0,1,1-3.57,14.28,14.28,0,0,1,2.54-3.14,12.77,12.77,0,0,1,3-2.18,6.53,6.53,0,0,1,2.54-.73,6.62,6.62,0,0,1,2.47.32,7.92,7.92,0,0,1,1.2.54c.2.11.4.22.59.35l.29.2.39.14a25.66,25.66,0,0,0,8.1-15,26.68,26.68,0,0,0,.27-4.28c0-.71-.11-1.42-.15-2.13,0-.35,0-.71-.11-1.06l-.2-1a24.71,24.71,0,0,0-2.92-7.88c-.26-.45-.54-.87-.78-1.3A12.69,12.69,0,0,0,71.85,17c-.25-.39-.48-.76-.7-1.13l-.31-.55-.33-.51c-.43-.66-.74-1.31-1-1.86a6.56,6.56,0,0,1-.66-1.5A2.36,2.36,0,0,1,69,9.33a2,2,0,0,1,2.13-.46,7.39,7.39,0,0,1,1.75.67A13.14,13.14,0,0,1,74.9,11l.57.49c.18.17.35.37.53.56.36.39.72.81,1.09,1.26a11.92,11.92,0,0,1,1,1.47c.32.52.67,1.07,1,1.65a30.75,30.75,0,0,1,3,10.07l.16,1.31c.06.43,0,.87.06,1.3,0,.88.07,1.75,0,2.62a32,32,0,0,1-.67,5.16A30.27,30.27,0,0,1,71,54.09c0,.14,0,.28,0,.43a3.42,3.42,0,0,1,.13.34,4,4,0,0,1,.19.68,5,5,0,0,1,.08,1.4,5.61,5.61,0,0,1-1.21,3A9.13,9.13,0,0,1,67,62.5Z"/><path class="cls-2" d="M58.32,26V36.42a7.66,7.66,0,0,0-13.38,0V26a7.66,7.66,0,0,0,13.38,0Z"/><path class="cls-2" d="M56.08,22.23a4.45,4.45,0,1,1-4.45-4.45A4.47,4.47,0,0,1,56.08,22.23Z"/><path class="cls-2" d="M56.08,22.23a4.45,4.45,0,1,1-4.45-4.45A4.47,4.47,0,0,1,56.08,22.23Z"/><path class="cls-2" d="M56.08,22.23a4.45,4.45,0,1,1-4.45-4.45A4.47,4.47,0,0,1,56.08,22.23Z"/><path class="cls-2" d="M56.08,22.23a4.45,4.45,0,1,1-4.45-4.45A4.47,4.47,0,0,1,56.08,22.23Z"/><path class="cls-2" d="M56.08,40.15a4.33,4.33,0,0,1-.23,1.4,4.44,4.44,0,0,1-8.44,0,4.33,4.33,0,0,1-.23-1.4,4.45,4.45,0,0,1,8.9,0Z"/><path class="cls-2" d="M56.08,40.15a4.33,4.33,0,0,1-.23,1.4,4.44,4.44,0,0,1-8.44,0,4.33,4.33,0,0,1-.23-1.4,4.45,4.45,0,0,1,8.9,0Z"/><path class="cls-2" d="M56.08,40.15a4.33,4.33,0,0,1-.23,1.4,4.44,4.44,0,0,1-8.44,0,4.33,4.33,0,0,1-.23-1.4,4.45,4.45,0,0,1,8.9,0Z"/><path class="cls-2" d="M56.08,40.15a4.33,4.33,0,0,1-.23,1.4,4.44,4.44,0,0,1-8.44,0,4.33,4.33,0,0,1-.23-1.4,4.45,4.45,0,0,1,8.9,0Z"/><path class="cls-2" d="M51.63,26.68A4.47,4.47,0,0,1,48.5,25.4h6.26A4.47,4.47,0,0,1,51.63,26.68Z"/><path class="cls-2" d="M56.08,40.15a4.33,4.33,0,0,1-.23,1.4H47.41a4.33,4.33,0,0,1-.23-1.4,4.45,4.45,0,0,1,8.9,0Z"/></g></g></svg>