<svg xmlns="http://www.w3.org/2000/svg" viewBox="0 0 318.23 65.17"><defs><style>.cls-1{fill:#07224b;}.cls-2{fill:#ff8d1b;}</style></defs><g id="Layer_2" data-name="Layer 2"><g id="Layer_1-2" data-name="Layer 1"><path class="cls-1" d="M74.82,52.13V13h4.83L95,41.65H93.29L108.54,13h4.72v39.1H108.1V21.19h1.22l-13.48,25H92.35l-13.65-25H80v31Z"/><path class="cls-1" d="M133.62,52.63A16.07,16.07,0,0,1,126,50.94a11.89,11.89,0,0,1-4.94-4.82,15.15,15.15,0,0,1-1.74-7.46A15.18,15.18,0,0,1,121,31.28a12.59,12.59,0,0,1,4.71-4.94,13.16,13.16,0,0,1,6.82-1.77A12.18,12.18,0,0,1,139,26.21a10.72,10.72,0,0,1,4.14,4.63A16.34,16.34,0,0,1,144.6,38v1.89H123.74V36.44h17.09l-1,.78a10,10,0,0,0-1.83-6.44,6.38,6.38,0,0,0-5.27-2.27,7.34,7.34,0,0,0-7.15,4.6,12.54,12.54,0,0,0-.94,5v.33a12.77,12.77,0,0,0,1,5.41,7.11,7.11,0,0,0,3,3.3,10,10,0,0,0,4.93,1.11,14.41,14.41,0,0,0,4.58-.75,13.62,13.62,0,0,0,4.24-2.36l1.66,3.88a12.84,12.84,0,0,1-4.71,2.61A18.56,18.56,0,0,1,133.62,52.63Z"/><path class="cls-1" d="M159.13,52.63a23.49,23.49,0,0,1-4.22-.38,19.08,19.08,0,0,1-3.77-1.11,13.21,13.21,0,0,1-3-1.78l1.61-3.77a19.1,19.1,0,0,0,2.94,1.64,15.16,15.16,0,0,0,3.25,1,17.1,17.1,0,0,0,3.29.34,7.74,7.74,0,0,0,4.44-1.06,3.28,3.28,0,0,0,1.5-2.83,2.69,2.69,0,0,0-1-2.24,7.15,7.15,0,0,0-3-1.25l-5.27-1.06a9.91,9.91,0,0,1-5.22-2.55,6.42,6.42,0,0,1-1.77-4.66,7.22,7.22,0,0,1,1.39-4.43,8.74,8.74,0,0,1,3.88-2.91,14.93,14.93,0,0,1,5.77-1,17.1,17.1,0,0,1,3.66.39,16.67,16.67,0,0,1,3.35,1.11,9,9,0,0,1,2.69,1.83L168,31.67a10.24,10.24,0,0,0-2.41-1.61,15.21,15.21,0,0,0-2.8-1,11.84,11.84,0,0,0-2.88-.36,7.35,7.35,0,0,0-4.41,1.09A3.43,3.43,0,0,0,154,32.67a3.07,3.07,0,0,0,.88,2.27,5.46,5.46,0,0,0,2.78,1.28L163,37.27a11.18,11.18,0,0,1,5.46,2.44,6,6,0,0,1,1.86,4.66,7.33,7.33,0,0,1-1.39,4.44A8.46,8.46,0,0,1,165,51.66,16.16,16.16,0,0,1,159.13,52.63Z"/><path class="cls-1" d="M184.56,52.63a23.38,23.38,0,0,1-4.21-.38,18.69,18.69,0,0,1-3.77-1.11,12.8,12.8,0,0,1-3.05-1.78l1.61-3.77a19.47,19.47,0,0,0,2.93,1.64,15.16,15.16,0,0,0,3.25,1,17.28,17.28,0,0,0,3.3.34,7.74,7.74,0,0,0,4.44-1.06,3.27,3.27,0,0,0,1.49-2.83,2.71,2.71,0,0,0-1-2.24,7.26,7.26,0,0,0-3-1.25l-5.27-1.06a9.88,9.88,0,0,1-5.21-2.55,6.39,6.39,0,0,1-1.78-4.66,7.22,7.22,0,0,1,1.39-4.43,8.79,8.79,0,0,1,3.88-2.91,15,15,0,0,1,5.77-1,17,17,0,0,1,7,1.5,9.13,9.13,0,0,1,2.69,1.83l-1.61,3.77A10.45,10.45,0,0,0,191,30.06a15,15,0,0,0-2.81-1,11.84,11.84,0,0,0-2.88-.36,7.35,7.35,0,0,0-4.41,1.09,3.43,3.43,0,0,0-1.47,2.91,3.08,3.08,0,0,0,.89,2.27,5.39,5.39,0,0,0,2.77,1.28l5.27,1.05a11.18,11.18,0,0,1,5.46,2.44,6,6,0,0,1,1.86,4.66,7.33,7.33,0,0,1-1.38,4.44,8.51,8.51,0,0,1-3.91,2.85A16.25,16.25,0,0,1,184.56,52.63Z"/><path class="cls-1" d="M201.15,52.13V13H206l15.36,28.62h-1.72L234.88,13h4.71v39.1h-5.16V21.19h1.22l-13.48,25h-3.49L205,21.13h1.33v31Z"/><path class="cls-1" d="M255.28,52.63a11.25,11.25,0,0,1-5.07-1.11,8.8,8.8,0,0,1-3.53-3,7.45,7.45,0,0,1-1.27-4.27,7,7,0,0,1,1.52-4.74,9,9,0,0,1,5-2.5,47.71,47.71,0,0,1,9.51-.75h2.61v3.44h-2.55a50.51,50.51,0,0,0-5.05.22,13,13,0,0,0-3.27.7,3.42,3.42,0,0,0-1.75,1.3,3.66,3.66,0,0,0-.53,2,4.37,4.37,0,0,0,1.45,3.41,5.72,5.72,0,0,0,4,1.3,6.6,6.6,0,0,0,3.6-1A7.1,7.1,0,0,0,262.46,45a7.83,7.83,0,0,0,.92-3.83V34.83c0-2.11-.45-3.62-1.33-4.55s-2.35-1.38-4.38-1.38a16.29,16.29,0,0,0-4.66.69,19.77,19.77,0,0,0-4.77,2.19l-1.72-3.94a15.77,15.77,0,0,1,3.33-1.72,23.56,23.56,0,0,1,4-1.13,20.35,20.35,0,0,1,4-.42A14.2,14.2,0,0,1,264,25.73a7.52,7.52,0,0,1,3.58,3.55,14.19,14.19,0,0,1,1.16,6.16V52.13h-5.27v-6h.5a8.23,8.23,0,0,1-1.63,3.52,7.87,7.87,0,0,1-3,2.25A10,10,0,0,1,255.28,52.63Z"/><path class="cls-1" d="M286.87,52.63c-3.37,0-5.89-.86-7.58-2.6s-2.52-4.25-2.52-7.55V29.39H271.5V25.07h5.27V16.92h5.6v8.15h8.38v4.32h-8.38V42a6.81,6.81,0,0,0,1.25,4.44A5,5,0,0,0,287.7,48a6.73,6.73,0,0,0,1.69-.23l1.69-.44.89,4.21a7.27,7.27,0,0,1-2.3.81A14.07,14.07,0,0,1,286.87,52.63Z"/><path class="cls-1" d="M307.25,52.63a16.07,16.07,0,0,1-7.63-1.69,11.89,11.89,0,0,1-4.94-4.82,15.15,15.15,0,0,1-1.74-7.46,15.18,15.18,0,0,1,1.72-7.38,12.66,12.66,0,0,1,4.71-4.94,13.16,13.16,0,0,1,6.82-1.77,12.24,12.24,0,0,1,6.47,1.64,10.7,10.7,0,0,1,4.13,4.63A16.34,16.34,0,0,1,318.23,38v1.89H297.38V36.44h17.08l-.95.78a10,10,0,0,0-1.83-6.44,6.37,6.37,0,0,0-5.26-2.27,7.34,7.34,0,0,0-7.16,4.6,12.54,12.54,0,0,0-.94,5v.33a12.77,12.77,0,0,0,1,5.41,7.16,7.16,0,0,0,3,3.3,10,10,0,0,0,4.93,1.11,14.36,14.36,0,0,0,4.58-.75,13.62,13.62,0,0,0,4.24-2.36l1.67,3.88a12.89,12.89,0,0,1-4.72,2.61A18.56,18.56,0,0,1,307.25,52.63Z"/><path class="cls-2" d="M5.86,15.51a7.82,7.82,0,0,0-1.5,1.16A17.35,17.35,0,0,0,2.8,18.74a8.43,8.43,0,0,0-.74,1.36c-.23.48-.46,1-.68,1.52a12.64,12.64,0,0,0-.53,1.71,17.43,17.43,0,0,0-.44,1.86A30.51,30.51,0,0,0,0,29.45c0,.71-.06,1.42,0,2.13S.08,33,.18,33.71a30.86,30.86,0,0,0,2.07,8.2A30.35,30.35,0,0,0,12.4,55a3.89,3.89,0,0,0,.12.65l.1.34a1,1,0,0,1,0,.25,4.59,4.59,0,0,0,0,1,5.72,5.72,0,0,0,.63,2,7.09,7.09,0,0,0,3.36,3.16,33.87,33.87,0,0,0,10.14,2.81,1.9,1.9,0,0,0,1.32-.29,1.25,1.25,0,0,0,.6-1,1.33,1.33,0,0,0-.42-1,2,2,0,0,0-1.15-.55,30.78,30.78,0,0,1-9.74-2.86,5.26,5.26,0,0,1,.08-2.13,29.11,29.11,0,0,0,9.93,3.06,1.45,1.45,0,0,0,1.13-.3,1.26,1.26,0,0,0,.51-1A1.46,1.46,0,0,0,28.67,58a1.43,1.43,0,0,0-1-.53,26.11,26.11,0,0,1-8.91-2.8,8.52,8.52,0,0,1,1.56-1.4A24.6,24.6,0,0,0,28,55.56a1.07,1.07,0,0,0,.94-.31,1.48,1.48,0,0,0,.45-1,1.66,1.66,0,0,0-.27-1.06,1,1,0,0,0-.77-.5A21.61,21.61,0,0,1,22,50.83a5.35,5.35,0,0,0-3.12-.42,8.29,8.29,0,0,0-1.7.42c-.28.11-.56.23-.82.36l-.2.11c-.09,0-.21,0-.3,0l-.6.1a25.06,25.06,0,0,1-9-18.22c-.06-.58,0-1.15,0-1.72s.09-1.14.13-1.71a25.15,25.15,0,0,1,.53-3.37c.11-.51.26-1,.37-1.48s.17-.95.32-1.38.25-.86.34-1.28.18-.82.3-1.19A16.91,16.91,0,0,0,8.63,19a6.62,6.62,0,0,0,.2-1.62,3.25,3.25,0,0,0-.21-1.24,1.53,1.53,0,0,0-.57-.79,1.66,1.66,0,0,0-1-.26A3,3,0,0,0,5.86,15.51Z"/><path class="cls-2" d="M58.53,16.44l-5.78,3.11a26.65,26.65,0,0,0-4.56-6A24.71,24.71,0,0,0,42.05,9.2c-.57-.25-1.12-.57-1.71-.79l-1.78-.65c-.59-.2-1.21-.32-1.82-.49-.3-.07-.6-.17-.92-.22l-.93-.13a26.26,26.26,0,0,0-3.76-.33c-.63,0-1.26.06-1.89.08a11.77,11.77,0,0,0-1.88.22,27.44,27.44,0,0,0-3.68.8l-1.77.65-.45.16L21,8.71l-.85.41A23.64,23.64,0,0,0,14,13.42a25.88,25.88,0,0,0-4.6,6,26.64,26.64,0,0,0-2.57,7.07L.41,25.19a32.88,32.88,0,0,1,3.24-9A32.67,32.67,0,0,1,9.47,8.67a30.62,30.62,0,0,1,7.82-5.46l1.08-.51.54-.26.56-.21,2.25-.82a33.86,33.86,0,0,1,4.67-1A17.32,17.32,0,0,1,28.77.11c.79,0,1.59-.1,2.38-.11a34.63,34.63,0,0,1,4.77.41L37.1.6c.39.05.77.18,1.16.27.77.21,1.56.38,2.31.63l2.25.82c.75.28,1.45.67,2.18,1a31.45,31.45,0,0,1,7.77,5.52A33.41,33.41,0,0,1,58.53,16.44Z"/><path class="cls-2" d="M46.35,62.5a12.36,12.36,0,0,1-5.75,1.24,8.85,8.85,0,0,1-4.87-1.51,4.32,4.32,0,0,1-2-3.2,5.86,5.86,0,0,1,1-3.57,14.28,14.28,0,0,1,2.54-3.14,12.77,12.77,0,0,1,3-2.18,6.33,6.33,0,0,1,5-.41,7.5,7.5,0,0,1,1.2.54,5.73,5.73,0,0,1,.59.35l.29.2.39.14a25.61,25.61,0,0,0,8.1-15,26.68,26.68,0,0,0,.27-4.28c0-.71-.11-1.42-.15-2.13a9.52,9.52,0,0,0-.11-1.06l-.2-1a24.93,24.93,0,0,0-2.91-7.88c-.27-.45-.55-.87-.79-1.3A12.69,12.69,0,0,0,51.25,17c-.25-.39-.48-.76-.7-1.13l-.31-.55-.33-.51c-.43-.66-.74-1.31-1-1.86a6.56,6.56,0,0,1-.66-1.5,2.36,2.36,0,0,1,.14-2.14,2,2,0,0,1,2.13-.46,7.39,7.39,0,0,1,1.75.67A12.69,12.69,0,0,1,54.3,11l.57.49c.18.17.35.37.53.56.36.39.72.81,1.09,1.26a11.92,11.92,0,0,1,1,1.47c.33.52.67,1.07,1,1.65a31,31,0,0,1,3,10.07l.15,1.31c.06.43,0,.87.06,1.3,0,.88.07,1.75,0,2.62a32,32,0,0,1-.67,5.16A30.27,30.27,0,0,1,50.43,54.09c0,.14,0,.28,0,.43a3.42,3.42,0,0,1,.13.34,4,4,0,0,1,.19.68,5,5,0,0,1,.08,1.4,5.61,5.61,0,0,1-1.21,3A9.13,9.13,0,0,1,46.35,62.5Z"/><path class="cls-2" d="M37.72,26V36.42a7.66,7.66,0,0,0-13.38,0V26a7.66,7.66,0,0,0,13.38,0Z"/><path class="cls-2" d="M35.48,22.23A4.45,4.45,0,1,1,31,17.78,4.47,4.47,0,0,1,35.48,22.23Z"/><path class="cls-2" d="M35.48,22.23A4.45,4.45,0,1,1,31,17.78,4.47,4.47,0,0,1,35.48,22.23Z"/><path class="cls-2" d="M35.48,22.23A4.45,4.45,0,1,1,31,17.78,4.47,4.47,0,0,1,35.48,22.23Z"/><path class="cls-2" d="M35.48,22.23A4.45,4.45,0,1,1,31,17.78,4.47,4.47,0,0,1,35.48,22.23Z"/><path class="cls-2" d="M35.48,40.15a4.61,4.61,0,0,1-.22,1.4,4.45,4.45,0,0,1-8.45,0,4.33,4.33,0,0,1-.23-1.4,4.45,4.45,0,0,1,8.9,0Z"/><path class="cls-2" d="M35.48,40.15a4.61,4.61,0,0,1-.22,1.4,4.45,4.45,0,0,1-8.45,0,4.33,4.33,0,0,1-.23-1.4,4.45,4.45,0,0,1,8.9,0Z"/><path class="cls-2" d="M35.48,40.15a4.61,4.61,0,0,1-.22,1.4,4.45,4.45,0,0,1-8.45,0,4.33,4.33,0,0,1-.23-1.4,4.45,4.45,0,0,1,8.9,0Z"/><path class="cls-2" d="M35.48,40.15a4.61,4.61,0,0,1-.22,1.4,4.45,4.45,0,0,1-8.45,0,4.33,4.33,0,0,1-.23-1.4,4.45,4.45,0,0,1,8.9,0Z"/><path class="cls-2" d="M31,26.68A4.47,4.47,0,0,1,27.9,25.4h6.26A4.47,4.47,0,0,1,31,26.68Z"/><path class="cls-2" d="M35.48,40.15a4.61,4.61,0,0,1-.22,1.4H26.81a4.33,4.33,0,0,1-.23-1.4,4.45,4.45,0,0,1,8.9,0Z"/></g></g></svg>